HIERARCHY
ROOT root
{
	OFFSET	0	13.1	24.9
	CHANNELS 6  Xposition Yposition Zposition Xrotation Yrotation Zrotation
	JOINT spine_1
	{
		OFFSET	0	9.99999	0
		CHANNELS 3  Xrotation Yrotation Zrotation
		JOINT spine_2
		{
			OFFSET	0	112	-10
			CHANNELS 3  Xrotation Yrotation Zrotation
			JOINT spine_3
			{
				OFFSET	0	206.5	19.3
				CHANNELS 3  Xrotation Yrotation Zrotation
				JOINT spine_4
				{
					OFFSET	0	110.4	14.6
					CHANNELS 3  Xrotation Yrotation Zrotation
					JOINT neck_1
					{
						OFFSET	0	71.8	-50.3
						CHANNELS 3  Xrotation Yrotation Zrotation
						JOINT neck_2
						{
							OFFSET	0	86.2	-25.8
							CHANNELS 3  Xrotation Yrotation Zrotation
							JOINT head_ee
							{
								OFFSET	0	179.8	-8.7
								CHANNELS 3  Xrotation Yrotation Zrotation
								End Site
								{
									OFFSET	1	0	0
								}
							}
						}
					}
					JOINT left_clavicle
					{
						OFFSET	-43.2	22.4	-70.8
						CHANNELS 3  Xrotation Yrotation Zrotation
						JOINT left_shoulder
						{
							OFFSET	-93.9	-5.79999	48.7
							CHANNELS 3  Xrotation Yrotation Zrotation
							JOINT left_elbow
							{
								OFFSET	-291.4	-30.8	15.2
								CHANNELS 3  Xrotation Yrotation Zrotation
								JOINT left_lowarm_twist
								{
									OFFSET	-110.7	-3.89999	13.6
									CHANNELS 3  Xrotation Yrotation Zrotation
									JOINT left_hand
									{
										OFFSET	-110.7	-3.89999	13.6
										CHANNELS 3  Xrotation Yrotation Zrotation
										JOINT left_ee
										{
											OFFSET	-80.8	-5.10001	12.1
											CHANNELS 3  Xrotation Yrotation Zrotation
											End Site
											{
												OFFSET	1	0	0
											}
										}
									}
								}
							}
						}
					}
					JOINT right_clavicle
					{
						OFFSET	43.2	22.4	-70.8
						CHANNELS 3  Xrotation Yrotation Zrotation
						JOINT right_shoulder
						{
							OFFSET	93.9	-5.79999	48.7
							CHANNELS 3  Xrotation Yrotation Zrotation
							JOINT right_elbow
							{
								OFFSET	291.4	-30.8	15.2
								CHANNELS 3  Xrotation Yrotation Zrotation
								JOINT right_lowarm_twist
								{
									OFFSET	110.7	-3.89999	13.6
									CHANNELS 3  Xrotation Yrotation Zrotation
									JOINT right_hand
									{
										OFFSET	110.7	-3.89999	13.6
										CHANNELS 3  Xrotation Yrotation Zrotation
										JOINT right_ee
										{
											OFFSET	80.8	-5.10001	12.1
											CHANNELS 3  Xrotation Yrotation Zrotation
											End Site
											{
												OFFSET	1	0	0
											}
										}
									}
								}
							}
						}
					}
				}
			}
		}
	}
	JOINT left_hip
	{
		OFFSET	-82.8	-127.5	0.300001
		CHANNELS 3  Xrotation Yrotation Zrotation
		JOINT left_knee
		{
			OFFSET	-28.2	-396.7	2.2
			CHANNELS 3  Xrotation Yrotation Zrotation
			JOINT left_ankle
			{
				OFFSET	-11.7	-411.3	35.4
				CHANNELS 3  Xrotation Yrotation Zrotation
				JOINT left_toes
				{
					OFFSET	0	-60	-88.6
					CHANNELS 3  Xrotation Yrotation Zrotation
					JOINT left_foot_ee
					{
						OFFSET	-22.5	-16.5	-42.2
						CHANNELS 3  Xrotation Yrotation Zrotation
						End Site
						{
							OFFSET	1	0	0
						}
					}
				}
			}
		}
	}
	JOINT right_hip
	{
		OFFSET	82.8	-127.5	0.300001
		CHANNELS 3  Xrotation Yrotation Zrotation
		JOINT right_knee
		{
			OFFSET	28.2	-396.7	2.2
			CHANNELS 3  Xrotation Yrotation Zrotation
			JOINT right_ankle
			{
				OFFSET	11.7	-411.3	35.4
				CHANNELS 3  Xrotation Yrotation Zrotation
				JOINT right_toes
				{
					OFFSET	0	-60	-88.6
					CHANNELS 3  Xrotation Yrotation Zrotation
					JOINT right_foot_ee
					{
						OFFSET	22.5	-16.5	-42.2
						CHANNELS 3  Xrotation Yrotation Zrotation
						End Site
						{
							OFFSET	1	0	0
						}
					}
				}
			}
		}
	}
}
MOTION
Frames: 13
Frame Time: 0.02
1803.38 723.564 -578.459 163.58 -80.9307 165.324 -0.630028 0.000554126 -1.73738 -0.628355 0.11109 -1.73382 -0.630828 0.491549 -1.66641 -0.634635 0.222243 -1.72311 -14.7291 4.16402 6.80659 -14.6099 3.88158 7.7859 -0.0 0.0 -0.0 2.0966 10.8736 4.85772 -1.07191 -31.0708 65.4095 2.02639 -45.1039 0.841584 -83.8316 -8.30557 5.21179 0.80625 15.3186 11.3176 -0.0 0.0 -0.0 -1.10865 0.124633 2.15815 2.98032 10.5185 -74.8654 0.478283 13.3293 -0.0558867 54.1022 1.27789 6.53807 -0.789422 0.0476916 5.29978 0.0 0.0 0.0 -3.75999 22.4881 -5.65211 -2.15605 0.08275 0.320513 26.4186 4.45619 -3.49561 -17.0322 0.0 0.0 -0.0 0.0 -0.0 4.74463 28.2877 -12.23 -14.1304 -0.319374 -2.13949 26.0128 -15.7732 3.49208 28.8442 -0.0 -0.0 0.0 0.0 0.0 
1813.54 725.169 -574.362 163.219 -80.5178 165.183 -0.713447 -0.0418001 -1.74779 -0.71175 0.0694836 -1.74691 -0.712887 0.456266 -1.68772 -0.716815 0.184039 -1.73858 -14.8515 4.29462 7.52431 -14.7025 3.71846 8.50968 -0.0 0.0 -0.0 2.30174 11.4638 5.24468 -1.09723 -30.0769 65.2032 2.05633 -45.5238 0.86287 -83.9833 -8.3246 5.20842 0.57536 16.6732 10.3588 -0.0 0.0 -0.0 -0.895618 0.552519 1.80341 4.02705 10.1902 -75.0411 0.3675 10.3178 -0.0331795 53.6991 1.24617 6.49732 -0.848491 0.239423 5.78018 0.0 0.0 0.0 -4.11102 22.8812 -5.88663 -2.49224 0.0945625 0.370757 28.2178 6.23941 -3.69457 -17.7007 0.0 0.0 -0.0 0.0 -0.0 3.80711 28.7835 -12.7437 -13.6974 -0.317471 -2.07308 26.7288 -14.986 3.5675 28.5444 -0.0 -0.0 0.0 0.0 0.0 
1821.0 722.581 -572.522 162.489 -79.9474 164.789 -0.963711 -0.0606368 -1.78397 -0.961941 0.0529864 -1.78421 -0.962442 0.456001 -1.72579 -0.966555 0.177767 -1.77613 -14.3911 4.84074 7.20437 -14.2625 4.88834 8.36377 -0.0 0.0 -0.0 2.19983 12.4738 5.13645 -1.1217 -29.5173 65.141 2.1221 -46.4247 0.910159 -83.6019 -8.27672 5.21678 0.385306 16.9333 9.27369 -0.0 0.0 -0.0 -0.682437 1.48084 1.51082 4.68415 10.3582 -75.2681 0.290036 8.17621 -0.0207295 53.4748 1.22865 6.47454 -0.849468 0.0488734 5.7032 0.0 0.0 0.0 -3.40524 21.7092 -6.70794 -5.12836 0.176919 0.766904 30.5758 5.53973 -3.94948 -17.2079 0.0 0.0 -0.0 0.0 -0.0 3.10662 29.1816 -12.9818 -13.4319 -0.316057 -2.03237 28.8873 -14.0611 3.80297 27.5978 -0.0 -0.0 0.0 0.0 0.0 
1831.72 720.606 -568.571 161.56 -81.0075 164.007 -0.884041 -0.0352188 -1.85518 -0.88213 0.0828817 -1.85366 -0.88364 0.498425 -1.78734 -0.888037 0.209944 -1.8436 -14.4811 5.32476 7.0543 -14.3673 5.91801 8.38058 -0.0 0.0 -0.0 2.28926 12.9291 5.31318 -2.29532 -29.4756 65.4841 2.08542 -45.926 0.883701 -83.2553 -8.23315 5.22409 0.197015 16.8872 8.09221 -0.0 0.0 -0.0 -0.249664 2.24659 0.758614 5.59738 9.60177 -75.2974 0.24124 6.81487 -0.0143637 53.682 1.24484 6.49559 -1.10947 -0.772745 7.08597 0.0 0.0 0.0 -3.34826 22.2797 -7.07029 -5.75697 0.193858 0.861887 32.6437 7.18926 -4.16517 -16.7096 0.0 0.0 -0.0 0.0 -0.0 2.29807 29.326 -13.5939 -13.1731 -0.314497 -1.9927 32.0138 -13.5137 4.13558 27.4453 -0.0 -0.0 0.0 0.0 0.0 
1839.9 719.545 -562.96 161.541 -81.101 164.053 -0.941599 -0.0570615 -1.857 -0.939683 0.0611991 -1.85687 -0.940439 0.479793 -1.79488 -0.944884 0.190356 -1.8481 -13.6858 5.60096 7.22605 -13.5653 6.22268 8.58581 -0.0 0.0 -0.0 2.26745 12.9952 5.28102 -2.89425 -28.6713 65.3781 1.88537 -43.0398 0.743479 -82.556 -8.1451 5.23804 0.0963723 17.0252 7.52451 -0.0 0.0 -0.0 0.856712 3.12664 -1.32322 6.87628 9.31744 -74.7302 0.198981 5.62955 -0.00978319 53.6266 1.2405 6.48997 -1.27791 -0.904989 8.15929 0.0 0.0 0.0 -2.50996 21.7945 -8.10948 -7.76256 0.240916 1.16605 34.0246 7.14077 -4.30412 -16.5959 0.0 0.0 -0.0 0.0 -0.0 1.50611 29.768 -13.6997 -12.5808 -0.310252 -1.90191 34.4623 -11.9786 4.3725 27.1882 -0.0 -0.0 0.0 0.0 0.0 
1851.5 719.324 -561.27 160.411 -81.1275 162.98 -0.878802 -0.261369 -1.75722 -0.877096 -0.149041 -1.77028 -0.871186 0.25318 -1.75842 -0.8755 -0.0276609 -1.77633 -13.5283 5.39477 7.60506 -13.3863 5.56994 8.87424 -0.0 0.0 -0.0 2.12866 13.0915 5.05729 -4.80894 -28.7177 65.2526 1.7654 -41.1668 0.663031 -82.4636 -8.13347 5.2398 -0.111066 17.7282 6.52533 -0.0 0.0 -0.0 1.40561 3.70819 -2.35226 8.04948 9.32896 -74.3702 0.193771 5.48306 -0.00927879 53.7424 1.24957 6.50171 -1.5185 -2.35566 9.11915 0.0 0.0 0.0 -1.94933 21.259 -8.53861 -9.55149 0.273882 1.43857 36.431 6.83169 -4.53668 -17.2535 0.0 0.0 -0.0 0.0 -0.0 0.258365 30.2317 -13.5855 -12.3287 -0.30816 -1.86329 34.531 -11.2473 4.37353 26.3484 -0.0 -0.0 0.0 0.0 0.0 
1855.79 719.601 -563.272 157.229 -80.8509 159.784 -1.09307 -0.180953 -1.60076 -1.09164 -0.0787391 -1.60902 -1.08833 0.291408 -1.58438 -1.09183 0.0375617 -1.61051 -13.2854 4.87649 6.68094 -13.177 5.1214 7.83013 -0.0 0.0 -0.0 2.19056 12.2064 5.10404 -5.39546 -28.1793 66.4459 1.57033 -37.8765 0.538846 -82.9965 -8.20059 5.22938 -0.214297 18.0108 6.0075 -0.0 0.0 -0.0 1.88988 5.38235 -3.16236 10.9193 8.8537 -74.1129 0.195429 5.52969 -0.00943792 54.1191 1.27922 6.53977 -1.6707 -3.62221 9.55606 0.0 0.0 0.0 0.83396 20.5047 -9.24114 -12.7946 0.311892 1.93468 38.2862 5.9477 -4.70674 -17.5434 0.0 0.0 -0.0 0.0 -0.0 -1.07887 30.809 -13.0922 -11.8025 -0.303247 -1.78271 37.2878 -10.2519 4.63233 25.1951 -0.0 -0.0 0.0 0.0 0.0 
1863.09 716.327 -562.055 155.428 -79.8385 157.856 -1.28752 -0.138459 -1.46502 -1.28632 -0.0449656 -1.47086 -1.28421 0.297609 -1.44114 -1.2871 0.0662986 -1.47005 -12.7618 4.82572 8.07796 -12.5885 4.06569 9.12595 -0.0 0.0 -0.0 1.24545 11.818 3.48926 -6.88484 -28.2309 68.1828 1.55136 -37.5395 0.52724 -83.2439 -8.23172 5.22433 -0.209777 18.1496 6.08981 -0.0 0.0 -0.0 2.8444 6.35871 -5.00627 13.6214 8.83377 -73.6417 0.266756 7.52781 -0.0175491 54.6072 1.31803 6.58882 -1.64157 -4.43044 8.98591 0.0 0.0 0.0 2.19808 20.1168 -9.52171 -15.8045 0.322004 2.39632 39.7557 5.05013 -4.8366 -18.8878 0.0 0.0 -0.0 0.0 -0.0 -2.33701 29.7445 -13.2474 -12.4867 -0.309491 -1.88749 37.3923 -11.6203 4.653 25.2386 -0.0 -0.0 0.0 0.0 0.0 
1873.49 717.896 -562.07 151.0 -78.904 153.188 -1.66054 -0.0933692 -1.34484 -1.65953 -0.00761199 -1.34806 -1.65849 0.314017 -1.311 -1.66087 0.103047 -1.34414 -13.1664 4.89459 7.49786 -13.022 4.62698 8.6074 -0.0 0.0 -0.0 1.85102 12.4986 4.55645 -8.68516 -28.0927 67.8035 1.33799 -33.5347 0.403146 -84.0979 -8.33898 5.20585 -0.237115 18.56 6.086 -0.0 0.0 -0.0 3.3457 7.25129 -5.95737 16.2797 8.83664 -73.4691 0.311336 8.76765 -0.0238676 54.9747 1.34752 6.62552 -1.84484 -5.06529 10.0441 0.0 0.0 0.0 8.19539 19.4941 -10.2698 -16.3512 0.321238 2.4802 39.6269 4.69462 -4.82544 -18.8172 0.0 0.0 -0.0 0.0 -0.0 -5.51942 31.4446 -12.272 -11.6757 -0.301953 -1.7633 38.5397 -9.92056 4.74547 25.1147 -0.0 -0.0 0.0 0.0 0.0 
1882.35 717.373 -563.395 148.066 -78.6913 150.73 -1.85324 -0.138038 -1.29581 -1.85231 -0.0553094 -1.30197 -1.85015 0.260964 -1.27675 -1.85242 0.056068 -1.30193 -13.4629 3.59404 6.8544 -13.335 2.59289 7.61631 -0.0 0.0 -0.0 1.50049 11.8594 3.92136 -10.7195 -28.7255 68.8975 1.24468 -31.6557 0.352875 -84.0603 -8.33426 5.2067 -0.149922 18.4488 6.57064 -0.0 0.0 -0.0 3.78733 8.72445 -6.75574 19.4046 8.88408 -73.5743 0.423457 11.8473 -0.0439368 56.1224 1.44113 6.73893 -1.81747 -5.49699 9.65779 0.0 0.0 0.0 8.30411 19.5538 -11.2357 -19.4502 0.301775 2.95522 39.7893 7.07297 -4.84269 -17.9175 0.0 0.0 -0.0 0.0 -0.0 -7.78538 29.7839 -12.1697 -11.1016 -0.295553 -1.67542 39.3909 -9.16832 4.81709 23.9666 -0.0 -0.0 0.0 0.0 0.0 
1893.61 716.277 -566.096 144.64 -77.1417 147.589 -2.3042 -0.0787027 -1.23399 -2.30335 -2.73408e-05 -1.2365 -2.30249 0.308258 -1.19746 -2.30447 0.115287 -1.23111 -13.5064 3.10632 6.53584 -13.3883 1.86695 7.16713 -0.0 0.0 -0.0 1.33499 12.6248 3.70757 -12.5154 -28.7971 69.5704 1.14772 -29.6192 0.303456 -84.5359 -8.39386 5.19575 -0.160482 18.4011 6.4879 -0.0 0.0 -0.0 4.02276 9.81999 -7.1643 21.3144 8.98088 -73.7353 0.512314 14.2404 -0.0639959 56.9173 1.50729 6.81638 -1.77775 -5.87171 9.21723 0.0 0.0 0.0 10.4281 19.2374 -12.5194 -21.2606 0.278526 3.23203 39.8807 9.37177 -4.86163 -17.4229 0.0 0.0 -0.0 0.0 -0.0 -9.98707 30.112 -11.6865 -11.8827 -0.304044 -1.79499 39.9877 -9.31739 4.87067 23.8862 -0.0 -0.0 0.0 0.0 0.0 
1907.26 718.227 -566.71 141.993 -76.8541 145.372 -2.56417 -0.0484752 -1.23547 -2.56332 0.0302334 -1.23606 -2.56309 0.342866 -1.18794 -2.56503 0.150965 -1.22718 -13.8189 2.51161 6.15011 -13.713 1.00948 6.62308 -0.0 0.0 -0.0 1.08957 12.7466 3.31074 -14.3596 -29.2831 70.6522 1.05357 -27.5597 0.258395 -84.967 -8.44781 5.18539 -0.149373 18.6593 6.65617 -0.0 0.0 -0.0 4.49048 11.3514 -8.03164 23.6828 9.1299 -73.8624 0.559046 15.4794 -0.0759813 57.5357 1.55952 6.876 -1.70654 -5.88783 8.73778 0.0 0.0 0.0 12.9602 18.9171 -13.7093 -22.5068 0.257445 3.42209 38.7843 11.1564 -4.77732 -16.9378 0.0 0.0 -0.0 0.0 -0.0 -12.0437 29.6952 -11.617 -10.6373 -0.289734 -1.60442 39.4948 -9.60277 4.82908 23.3882 -0.0 -0.0 0.0 0.0 0.0 
1918.15 715.71 -566.196 138.419 -77.1323 141.718 -2.6584 -0.0387426 -1.23568 -2.65756 0.0399595 -1.23564 -2.65753 0.354125 -1.18449 -2.65945 0.162627 -1.22555 -13.4942 2.14428 5.70554 -13.4026 0.547801 6.08604 -0.0 0.0 -0.0 0.859281 13.2582 2.97744 -16.1547 -29.4852 70.9919 0.949358 -25.1864 0.212093 -85.1228 -8.46727 5.18155 -0.107648 18.2788 6.76098 -0.0 0.0 -0.0 4.80474 11.4039 -8.68731 25.8239 9.27797 -73.1478 0.635147 17.4654 -0.0975632 58.2811 1.62331 6.94712 -1.60951 -6.42853 7.84446 0.0 0.0 0.0 14.3782 19.0157 -14.0224 -25.4082 0.192382 3.86253 39.1752 13.4475 -4.83693 -16.7482 0.0 0.0 -0.0 0.0 -0.0 -14.1557 28.3277 -11.2572 -10.4331 -0.286993 -1.57322 39.0222 -9.57444 4.78672 22.5154 -0.0 -0.0 0.0 0.0 0.0 
